PathFileType	4	(X/Y/Z) S1_Point1_Trial1.trc
DataRate	CameraRate	NumFrames	NumMarkers	Units	OrigDataRate	OrigDataStartFrame	OrigNumFrames
1000.00	1000.00	9	43	m	1000.00	2675	5348
Frame#	Time	L.FootHeel			L.AnkleLateral			L.AnkleMedial			L.ToeLateral			L.ToeMedial			L.WristMedial			L.WristLateral			L.ShoulderFront			L.ShoulderRear			L.KneeLateral			L.KneeMedial			L.LowerArmLateral			L.LowerArmMedial			R.FootHeel			R.AnkleLateral			R.AnkleMedial			R.ToeLateral			R.ToeMedial			R.WristMedial			R.WristLateral			R.ShoulderFront			R.ShoulderRear			R.KneeLateral			R.KneeMedial			R.LowerArmLateral			R.LowerArmMedial			LASIS			LPSIS			RASIS			RPSIS			C7			CLAV			LACR			RACR			Head_Top			R.UpparArm			L.UpparArm			R.Thigh			L.Thigh			R.Shank			L.Shank			RFAsuperior			LFAsuperior			
		X1	Y1	Z1	X2	Y2	Z2	X3	Y3	Z3	X4	Y4	Z4	X5	Y5	Z5	X6	Y6	Z6	X7	Y7	Z7	X8	Y8	Z8	X9	Y9	Z9	X10	Y10	Z10	X11	Y11	Z11	X12	Y12	Z12	X13	Y13	Z13	X14	Y14	Z14	X15	Y15	Z15	X16	Y16	Z16	X17	Y17	Z17	X18	Y18	Z18	X19	Y19	Z19	X20	Y20	Z20	X21	Y21	Z21	X22	Y22	Z22	X23	Y23	Z23	X24	Y24	Z24	X25	Y25	Z25	X26	Y26	Z26	X27	Y27	Z27	X28	Y28	Z28	X29	Y29	Z29	X30	Y30	Z30	X31	Y31	Z31	X32	Y32	Z32	X33	Y33	Z33	X34	Y34	Z34	X35	Y35	Z35	X36	Y36	Z36	X37	Y37	Z37	X38	Y38	Z38	X39	Y39	Z39	X40	Y40	Z40	X41	Y41	Z41	X42	Y42	Z42	X43	Y43	Z43
2674	2.674	-0.316399	0.030763	-0.035976	-0.260781	0.074006	-0.067867	-0.248821	0.054852	-0.022763	-0.191641	-0.012411	-0.160616	-0.115013	0.024677	-0.120707	-0.120761	0.742765	-0.138556	-0.133041	0.751574	-0.158328	-0.226538	1.232815	-0.143713	-0.32509	1.236311	-0.133859	-0.243471	0.444641	-0.031996	-0.285292	0.444011	0.035684	-0.187769	0.963228	-0.175094	-0.224345	0.942681	-0.144692	-0.272446	0.049006	0.197472	-0.212797	0.077452	0.195654	-0.225722	0.085901	0.156809	-0.089304	0.019267	0.225943	-0.049566	0.030029	0.176709	0.137356	1.516043	0.332222	0.099657	1.528046	0.37305	-0.265134	1.334954	0.085961	-0.335118	1.280494	0.067821	-0.205051	0.543862	0.187363	-0.260712	0.567327	0.126363	-0.081057	1.401449	0.253216	-0.044677	1.370565	0.251887	-0.121199	0.877569	-0.066549	-0.277131	0.909113	-0.021538	-0.119875	0.901968	0.148259	-0.26424	0.918324	0.124948	-0.29358	1.350784	-0.045871	-0.23282	1.289751	-0.036922	-0.24935	1.282486	-0.140931	-0.254781	1.322309	0.068373	-0.263647	1.573502	-0.034243	-0.164212	1.378606	0.253318	-0.235819	1.075924	-0.21018	-0.15403	0.606528	0.215912	-0.229112	0.521026	-0.088289	-0.22326	0.302144	0.237819	-0.254396	0.245731	-0.079954	-0.002006	1.462446	0.29223	-0.177196	0.915195	-0.161728
2675	2.675	-0.316395	0.030746	-0.035977	-0.260782	0.073996	-0.067868	-0.248818	0.054841	-0.022766	-0.191638	-0.012412	-0.160623	-0.115011	0.024682	-0.120716	-0.120779	0.742754	-0.138576	-0.133067	0.751562	-0.158344	-0.226668	1.232723	-0.143674	-0.325214	1.236165	-0.133749	-0.24346	0.444644	-0.03198	-0.285258	0.444014	0.035715	-0.187819	0.963207	-0.175091	-0.22439	0.942662	-0.144682	-0.272419	0.04902	0.1974	-0.212771	0.077471	0.195624	-0.22568	0.085943	0.156779	-0.089287	0.019272	0.225925	-0.049529	0.030067	0.176713	0.137231	1.516451	0.33214	0.099505	1.528455	0.372944	-0.265155	1.334901	0.086001	-0.335122	1.280396	0.067927	-0.204984	0.543864	0.187361	-0.260654	0.567335	0.126372	-0.081074	1.401651	0.25318	-0.04466	1.370806	0.251888	-0.121213	0.877559	-0.066574	-0.277126	0.909108	-0.021502	-0.119802	0.901969	0.148232	-0.264175	0.918327	0.124978	-0.293706	1.35068	-0.045814	-0.232905	1.289683	-0.036893	-0.249506	1.282382	-0.140888	-0.254808	1.322257	0.068409	-0.263652	1.573486	-0.034299	-0.164204	1.378717	0.25326	-0.235865	1.075908	-0.210162	-0.153956	0.606526	0.215907	-0.229119	0.521029	-0.088277	-0.223219	0.30214	0.237822	-0.254405	0.245732	-0.079949	-0.002062	1.462668	0.292155	-0.177226	0.915182	-0.161732
2676	2.676	-0.316391	0.030731	-0.035977	-0.260783	0.073987	-0.06787	-0.248816	0.054832	-0.022768	-0.191634	-0.012412	-0.160629	-0.11501	0.024687	-0.120724	-0.120798	0.742742	-0.138596	-0.133092	0.751551	-0.158361	-0.226794	1.232635	-0.143637	-0.325335	1.236028	-0.133643	-0.243449	0.444647	-0.031964	-0.285224	0.444018	0.035746	-0.187867	0.963186	-0.175089	-0.224432	0.942643	-0.144671	-0.272398	0.049031	0.197342	-0.212751	0.077484	0.1956	-0.225647	0.085973	0.156754	-0.089276	0.019276	0.225919	-0.049501	0.030093	0.176726	0.137108	1.51685	0.332056	0.099358	1.528853	0.372838	-0.265173	1.334856	0.086037	-0.335123	1.280309	0.068027	-0.204919	0.543866	0.187361	-0.260597	0.567344	0.126382	-0.081092	1.401854	0.253149	-0.044643	1.371048	0.251899	-0.121225	0.877544	-0.066595	-0.27712	0.909102	-0.021464	-0.119731	0.901967	0.148209	-0.264112	0.91833	0.12501	-0.293825	1.350583	-0.045763	-0.232986	1.289621	-0.036868	-0.249656	1.282282	-0.140848	-0.254831	1.322213	0.068441	-0.263658	1.57347	-0.034355	-0.164196	1.378828	0.253202	-0.235912	1.075893	-0.210143	-0.153883	0.606524	0.215902	-0.229127	0.521032	-0.088266	-0.223177	0.302137	0.237825	-0.254414	0.245733	-0.079943	-0.002118	1.462891	0.292078	-0.177255	0.91517	-0.161734
2677	2.677	-0.316388	0.030719	-0.035978	-0.260784	0.073979	-0.067872	-0.248814	0.054825	-0.02277	-0.191631	-0.012414	-0.160633	-0.115008	0.024692	-0.12073	-0.120817	0.74273	-0.138617	-0.133118	0.751538	-0.158377	-0.22691	1.232556	-0.143606	-0.325446	1.235908	-0.133549	-0.243439	0.444651	-0.031946	-0.285191	0.444024	0.035777	-0.187912	0.963168	-0.175085	-0.224471	0.942626	-0.144659	-0.272385	0.049039	0.1973	-0.212737	0.077493	0.195582	-0.225622	0.085992	0.156735	-0.089271	0.019278	0.225922	-0.049482	0.030109	0.176744	0.136991	1.517235	0.331967	0.099221	1.529233	0.372731	-0.265184	1.334824	0.086064	-0.335122	1.280241	0.068116	-0.204855	0.543868	0.187362	-0.260541	0.567351	0.126393	-0.081109	1.402054	0.253119	-0.044626	1.371286	0.25191	-0.121234	0.877528	-0.066611	-0.277111	0.909096	-0.021426	-0.119661	0.901963	0.148191	-0.26405	0.918331	0.125043	-0.29393	1.350502	-0.045721	-0.233057	1.28957	-0.036849	-0.249792	1.282194	-0.140817	-0.254849	1.32218	0.068465	-0.263666	1.573453	-0.03441	-0.164189	1.378939	0.253144	-0.235959	1.075878	-0.210125	-0.153811	0.606522	0.215897	-0.229133	0.521035	-0.088255	-0.223136	0.302133	0.237828	-0.254424	0.245734	-0.079937	-0.002175	1.463116	0.291997	-0.177282	0.915158	-0.161735
2678	2.678	-0.316385	0.03071	-0.035979	-0.260784	0.073974	-0.067874	-0.248813	0.05482	-0.022772	-0.191628	-0.012415	-0.160636	-0.115007	0.024695	-0.120735	-0.120838	0.742717	-0.138639	-0.133146	0.751526	-0.158394	-0.22701	1.232494	-0.143585	-0.325541	1.235816	-0.133473	-0.243429	0.444655	-0.031929	-0.285159	0.44403	0.035808	-0.187952	0.963152	-0.17508	-0.224503	0.942611	-0.144645	-0.272379	0.049044	0.197274	-0.21273	0.077498	0.195572	-0.225607	0.086001	0.156723	-0.089271	0.019278	0.22593	-0.049471	0.030114	0.176762	0.136883	1.517599	0.331868	0.099098	1.529586	0.372622	-0.265187	1.334809	0.08608	-0.335117	1.280198	0.068185	-0.204791	0.543869	0.187365	-0.260486	0.567357	0.126406	-0.081126	1.402247	0.253082	-0.044612	1.371515	0.25191	-0.121238	0.877513	-0.066621	-0.277099	0.90909	-0.021387	-0.119594	0.901959	0.148179	-0.26399	0.918333	0.125078	-0.294013	1.350443	-0.045693	-0.233115	1.289533	-0.036839	-0.249907	1.282125	-0.140796	-0.254857	1.322164	0.068479	-0.263674	1.573438	-0.034464	-0.164183	1.37905	0.253086	-0.236008	1.075863	-0.210107	-0.153739	0.60652	0.215893	-0.22914	0.521038	-0.088243	-0.223094	0.302129	0.237831	-0.254433	0.245736	-0.079931	-0.002233	1.463345	0.291906	-0.177307	0.915147	-0.161736
2679	2.679	-0.316383	0.030706	-0.03598	-0.260784	0.073971	-0.067876	-0.248812	0.054819	-0.022775	-0.191626	-0.012417	-0.160638	-0.115006	0.024696	-0.120738	-0.12086	0.742703	-0.138661	-0.133176	0.751512	-0.158411	-0.227087	1.232454	-0.143577	-0.325615	1.235761	-0.133421	-0.24342	0.44466	-0.031911	-0.285128	0.444037	0.035839	-0.187986	0.963141	-0.175073	-0.224527	0.942598	-0.144626	-0.27238	0.049047	0.197265	-0.21273	0.077499	0.195569	-0.225602	0.086002	0.156719	-0.089275	0.019275	0.225942	-0.049471	0.030109	0.176777	0.136787	1.517935	0.331756	0.098993	1.529904	0.372507	-0.265179	1.334817	0.086081	-0.335108	1.280189	0.068231	-0.204727	0.54387	0.187371	-0.260434	0.56736	0.126423	-0.081141	1.402432	0.253032	-0.044599	1.371732	0.25189	-0.121235	0.877502	-0.066623	-0.277082	0.909087	-0.021346	-0.119529	0.901958	0.148175	-0.263931	0.918335	0.125114	-0.294067	1.350414	-0.045683	-0.233155	1.289517	-0.036842	-0.249992	1.282082	-0.140789	-0.254855	1.32217	0.068477	-0.263683	1.573425	-0.034517	-0.164177	1.37916	0.253027	-0.236059	1.075848	-0.210089	-0.153666	0.606518	0.215888	-0.229146	0.52104	-0.088231	-0.223053	0.302125	0.237834	-0.254441	0.245738	-0.079926	-0.002293	1.463579	0.291805	-0.17733	0.915135	-0.161735
2680	2.68	-0.316383	0.030709	-0.03598	-0.260784	0.073972	-0.067879	-0.248811	0.054822	-0.022777	-0.191627	-0.01242	-0.160638	-0.115006	0.024694	-0.120739	-0.120886	0.742687	-0.138683	-0.133209	0.751497	-0.158429	-0.227137	1.232441	-0.143586	-0.325661	1.235752	-0.133401	-0.243411	0.444664	-0.031892	-0.285099	0.444044	0.035871	-0.188012	0.963135	-0.175063	-0.22454	0.942589	-0.144603	-0.272387	0.049049	0.197276	-0.212736	0.077497	0.195574	-0.225608	0.085994	0.156722	-0.089284	0.019271	0.225954	-0.04948	0.030095	0.176786	0.136705	1.518239	0.331625	0.098913	1.530179	0.372387	-0.265158	1.334852	0.086063	-0.335093	1.280221	0.068245	-0.204664	0.543869	0.18738	-0.260384	0.567359	0.126444	-0.081154	1.402605	0.252963	-0.044589	1.371931	0.25184	-0.121223	0.877498	-0.066616	-0.277059	0.909085	-0.021304	-0.119468	0.901961	0.148181	-0.263875	0.918338	0.125153	-0.294085	1.350423	-0.045695	-0.233171	1.289527	-0.036861	-0.25004	1.28207	-0.140801	-0.25484	1.322201	0.068459	-0.263692	1.573417	-0.034568	-0.164173	1.37927	0.252968	-0.236113	1.075833	-0.210071	-0.153595	0.606517	0.215883	-0.229152	0.521043	-0.088218	-0.223011	0.302122	0.237837	-0.25445	0.24574	-0.07992	-0.002355	1.463821	0.291689	-0.177351	0.915124	-0.161733
2681	2.681	-0.316384	0.030719	-0.035981	-0.260782	0.073977	-0.067881	-0.24881	0.054829	-0.022778	-0.191629	-0.012423	-0.160636	-0.115007	0.024689	-0.120739	-0.120915	0.742669	-0.138707	-0.133245	0.751481	-0.158447	-0.227157	1.232457	-0.143612	-0.325679	1.23579	-0.133413	-0.243403	0.444668	-0.031874	-0.285071	0.444052	0.035902	-0.18803	0.963135	-0.17505	-0.224542	0.942584	-0.144575	-0.272402	0.049049	0.197305	-0.212748	0.077492	0.195586	-0.225626	0.08598	0.156734	-0.089296	0.019265	0.225964	-0.049499	0.030072	0.176787	0.136637	1.518509	0.331476	0.098857	1.53041	0.37226	-0.265124	1.334913	0.086026	-0.335073	1.280294	0.068227	-0.204599	0.543867	0.187391	-0.260336	0.567354	0.12647	-0.081166	1.402765	0.252873	-0.044582	1.372113	0.251756	-0.121201	0.877503	-0.066601	-0.27703	0.909086	-0.021262	-0.119409	0.90197	0.148196	-0.26382	0.918343	0.125193	-0.294067	1.350468	-0.045731	-0.233164	1.289561	-0.036895	-0.25005	1.282091	-0.140832	-0.254811	1.322257	0.068423	-0.263701	1.573413	-0.034617	-0.16417	1.379381	0.252909	-0.236169	1.075818	-0.210053	-0.153523	0.606516	0.215878	-0.229159	0.521046	-0.088206	-0.222969	0.302118	0.237841	-0.254458	0.245742	-0.079915	-0.002419	1.46407	0.291558	-0.177371	0.915113	-0.161732
2682	2.682	-0.316386	0.030733	-0.035982	-0.26078	0.073986	-0.067884	-0.24881	0.054838	-0.02278	-0.191634	-0.012426	-0.160634	-0.115008	0.024682	-0.120738	-0.120947	0.74265	-0.13873	-0.133283	0.751464	-0.158465	-0.227155	1.232495	-0.143651	-0.325676	1.235863	-0.13345	-0.243396	0.444672	-0.031856	-0.285043	0.444058	0.035932	-0.188042	0.963139	-0.175035	-0.224536	0.942581	-0.144543	-0.272421	0.04905	0.197349	-0.212765	0.077486	0.195604	-0.225652	0.08596	0.156752	-0.089311	0.019258	0.225972	-0.049525	0.030042	0.176782	0.136581	1.518753	0.331312	0.098821	1.530605	0.372128	-0.265081	1.334994	0.085975	-0.335049	1.280397	0.068184	-0.204535	0.543864	0.187405	-0.260291	0.567346	0.126498	-0.081175	1.402914	0.252766	-0.044578	1.372279	0.251644	-0.121174	0.877517	-0.066581	-0.276998	0.90909	-0.021219	-0.119351	0.901984	0.148215	-0.263767	0.918348	0.125233	-0.294022	1.350542	-0.045783	-0.23314	1.289615	-0.036941	-0.250031	1.282137	-0.140876	-0.254772	1.322332	0.068373	-0.263711	1.573413	-0.034666	-0.164168	1.379491	0.25285	-0.236228	1.075803	-0.210035	-0.153451	0.606517	0.215872	-0.229165	0.521049	-0.088192	-0.222927	0.302115	0.237845	-0.254466	0.245745	-0.07991	-0.002486	1.464324	0.291416	-0.17739	0.915101	-0.161729
